# xmcd
#
# Track frame offsets: 
#        150
#        22160
#        51045
#        74521
#
# Disc length: 1364 seconds
#
# Revision: 0
# Processed by: cddbd v1.5.2PL0 Copyright (c) Steve Scherf et al.
# Submitted via: ExactAudioCopy v1.1
#
DISCID=35055204
DTITLE=RUFUS HUFF - BIG SOUND SAMPLER
DYEAR=1900
DGENRE=Blues
TTITLE0=13 DAZE
TTITLE1=THE BOTTOM
TTITLE2=SHIRLEY'S
TTITLE3=GOING DOW SLOW
EXTD=
EXTT0=
EXTT1=
EXTT2=
EXTT3=
PLAYORDER=
